<svg xmlns="http://www.w3.org/2000/svg" version="1.1" xmlns:xlink="http://www.w3.org/1999/xlink" xmlns:svgjs="http://svgjs.com/svgjs" width="32" height="32">
  <style>@media (prefers-color-scheme: light) { #dark { display: none; } }
    @media (prefers-color-scheme: dark) { #light { display: none; } }
    </style>
  <svg id="light" width="32" height="32" viewBox="0 0 32 32" fill="none" xmlns="http://www.w3.org/2000/svg">
    <rect width="32" height="32" rx="10" fill="#F9FAFB"></rect>
    <path d="M9.21448 7.55396C9.52042 6.9351 9.26675 6.18539 8.64789 5.87945C8.02902 5.57351 7.27932 5.82718 6.97338 6.44604L9.21448 7.55396ZM6.97338 25.554C7.27932 26.1728 8.02902 26.4265 8.64789 26.1205C9.26675 25.8146 9.52042 25.0649 9.21448 24.446L6.97338 25.554ZM22.7855 24.446C22.4796 25.0649 22.7333 25.8146 23.3521 26.1205C23.971 26.4265 24.7207 26.1728 25.0266 25.554L22.7855 24.446ZM25.0266 6.44604C24.7207 5.82718 23.971 5.57351 23.3521 5.87945C22.7333 6.18539 22.4796 6.9351 22.7855 7.55396L25.0266 6.44604ZM12.7148 11.375C12.0244 11.375 11.4648 11.9346 11.4648 12.625C11.4648 13.3154 12.0244 13.875 12.7148 13.875V11.375ZM15.1849 13.4409L13.9825 13.7827L13.9825 13.7827L15.1849 13.4409ZM16.9593 19.6841L15.757 20.0258L15.757 20.0258L16.9593 19.6841ZM19.4295 21.75C20.1199 21.75 20.6795 21.1904 20.6795 20.5C20.6795 19.8096 20.1199 19.25 19.4295 19.25V21.75ZM20.5486 13.875C21.239 13.875 21.7986 13.3154 21.7986 12.625C21.7986 11.9346 21.239 11.375 20.5486 11.375V13.875ZM18.7596 13.4107L19.7107 14.2218L19.7107 14.2218L18.7596 13.4107ZM13.3847 19.7143L14.3359 20.5253L14.3359 20.5253L13.3847 19.7143ZM11.5956 19.25C10.9053 19.25 10.3456 19.8096 10.3456 20.5C10.3456 21.1904 10.9053 21.75 11.5956 21.75V19.25ZM7.25 16C7.25 12.9633 7.95752 10.0965 9.21448 7.55396L6.97338 6.44604C5.54975 9.32578 4.75 12.5709 4.75 16H7.25ZM9.21448 24.446C7.95752 21.9035 7.25 19.0367 7.25 16H4.75C4.75 19.4291 5.54975 22.6742 6.97338 25.554L9.21448 24.446ZM24.75 16C24.75 19.0367 24.0425 21.9035 22.7855 24.446L25.0266 25.554C26.4503 22.6742 27.25 19.4291 27.25 16L24.75 16ZM22.7855 7.55396C24.0425 10.0965 24.75 12.9633 24.75 16L27.25 16C27.25 12.5709 26.4503 9.32578 25.0266 6.44604L22.7855 7.55396ZM12.7148 13.875H14.1088V11.375H12.7148V13.875ZM13.9825 13.7827L15.757 20.0258L18.1617 19.3423L16.3873 13.0992L13.9825 13.7827ZM18.0354 21.75H19.4295V19.25H18.0354V21.75ZM15.757 20.0258C16.046 21.0425 16.9732 21.75 18.0354 21.75V19.25C18.0983 19.25 18.1473 19.2915 18.1617 19.3423L15.757 20.0258ZM14.1088 13.875C14.046 13.875 13.997 13.8335 13.9825 13.7827L16.3873 13.0992C16.0983 12.0825 15.1711 11.375 14.1088 11.375V13.875ZM20.5486 11.375H20.459V13.875H20.5486V11.375ZM17.8084 12.5997L12.4335 18.9032L14.3359 20.5253L19.7107 14.2218L17.8084 12.5997ZM11.6853 19.25H11.5956V21.75H11.6853V19.25ZM12.4335 18.9032C12.245 19.1244 11.9714 19.25 11.6853 19.25V21.75C12.706 21.75 13.674 21.3016 14.3359 20.5253L12.4335 18.9032ZM20.459 11.375C19.4382 11.375 18.4703 11.8234 17.8084 12.5997L19.7107 14.2218C19.8993 14.0006 20.1729 13.875 20.459 13.875V11.375Z" fill="#1F2937"></path>
  </svg>

  <svg id="dark" width="32" height="32" viewBox="0 0 32 32" fill="none" xmlns="http://www.w3.org/2000/svg">
    <rect width="32" height="32" rx="10" fill="#1F2937" />
    <path d="M9.21448 7.55396C9.52042 6.9351 9.26675 6.18539 8.64789 5.87945C8.02902 5.57351 7.27932 5.82718 6.97338 6.44604L9.21448 7.55396ZM6.97338 25.554C7.27932 26.1728 8.02902 26.4265 8.64789 26.1205C9.26675 25.8146 9.52042 25.0649 9.21448 24.446L6.97338 25.554ZM22.7855 24.446C22.4796 25.0649 22.7333 25.8146 23.3521 26.1205C23.971 26.4265 24.7207 26.1728 25.0266 25.554L22.7855 24.446ZM25.0266 6.44604C24.7207 5.82718 23.971 5.57351 23.3521 5.87945C22.7333 6.18539 22.4796 6.9351 22.7855 7.55396L25.0266 6.44604ZM12.7148 11.375C12.0244 11.375 11.4648 11.9346 11.4648 12.625C11.4648 13.3154 12.0244 13.875 12.7148 13.875V11.375ZM15.1849 13.4409L13.9825 13.7827L13.9825 13.7827L15.1849 13.4409ZM16.9593 19.6841L15.757 20.0258L15.757 20.0258L16.9593 19.6841ZM19.4295 21.75C20.1199 21.75 20.6795 21.1904 20.6795 20.5C20.6795 19.8096 20.1199 19.25 19.4295 19.25V21.75ZM20.5486 13.875C21.239 13.875 21.7986 13.3154 21.7986 12.625C21.7986 11.9346 21.239 11.375 20.5486 11.375V13.875ZM18.7596 13.4107L19.7107 14.2218L19.7107 14.2218L18.7596 13.4107ZM13.3847 19.7143L14.3359 20.5253L14.3359 20.5253L13.3847 19.7143ZM11.5956 19.25C10.9053 19.25 10.3456 19.8096 10.3456 20.5C10.3456 21.1904 10.9053 21.75 11.5956 21.75V19.25ZM7.25 16C7.25 12.9633 7.95752 10.0965 9.21448 7.55396L6.97338 6.44604C5.54975 9.32578 4.75 12.5709 4.75 16H7.25ZM9.21448 24.446C7.95752 21.9035 7.25 19.0367 7.25 16H4.75C4.75 19.4291 5.54975 22.6742 6.97338 25.554L9.21448 24.446ZM24.75 16C24.75 19.0367 24.0425 21.9035 22.7855 24.446L25.0266 25.554C26.4503 22.6742 27.25 19.4291 27.25 16L24.75 16ZM22.7855 7.55396C24.0425 10.0965 24.75 12.9633 24.75 16L27.25 16C27.25 12.5709 26.4503 9.32578 25.0266 6.44604L22.7855 7.55396ZM12.7148 13.875H14.1088V11.375H12.7148V13.875ZM13.9825 13.7827L15.757 20.0258L18.1617 19.3423L16.3873 13.0992L13.9825 13.7827ZM18.0354 21.75H19.4295V19.25H18.0354V21.75ZM15.757 20.0258C16.046 21.0425 16.9732 21.75 18.0354 21.75V19.25C18.0983 19.25 18.1473 19.2915 18.1617 19.3423L15.757 20.0258ZM14.1088 13.875C14.046 13.875 13.997 13.8335 13.9825 13.7827L16.3873 13.0992C16.0983 12.0825 15.1711 11.375 14.1088 11.375V13.875ZM20.5486 11.375H20.459V13.875H20.5486V11.375ZM17.8084 12.5997L12.4335 18.9032L14.3359 20.5253L19.7107 14.2218L17.8084 12.5997ZM11.6853 19.25H11.5956V21.75H11.6853V19.25ZM12.4335 18.9032C12.245 19.1244 11.9714 19.25 11.6853 19.25V21.75C12.706 21.75 13.674 21.3016 14.3359 20.5253L12.4335 18.9032ZM20.459 11.375C19.4382 11.375 18.4703 11.8234 17.8084 12.5997L19.7107 14.2218C19.8993 14.0006 20.1729 13.875 20.459 13.875V11.375Z" fill="#F9FAFB" />
  </svg>

</svg>
